# MagicaVoxel @ Ephtracy

# group
o 

# material
mtllib Tank2.mtl
usemtl palette

# normals
vn -1 0 0
vn 1 0 0
vn 0 0 1
vn 0 0 -1
vn 0 -1 0
vn 0 1 0

# texcoords
vt 0.396484 0.5
vt 0.744141 0.5
vt 0.841797 0.5
vt 0.982422 0.5
vt 0.994141 0.5

# verts
v -0.5 0 0.4
v -0.5 0 -0.4
v -0.5 0.1 0.5
v -0.5 0.1 0.4
v -0.5 0.1 -0.4
v -0.5 0.1 -0.5
v -0.5 0.3 0.5
v -0.5 0.3 0.4
v -0.5 0.3 -0.4
v -0.5 0.3 -0.5
v -0.5 0.4 0.4
v -0.5 0.4 -0.4
v -0.4 0 0.5
v -0.4 0 0.4
v -0.4 0 -0.4
v -0.4 0 -0.5
v -0.4 0.1 0.5
v -0.4 0.1 0.4
v -0.4 0.1 -0.4
v -0.4 0.1 -0.5
v -0.4 0.3 0.5
v -0.4 0.3 0.4
v -0.4 0.3 -0.4
v -0.4 0.3 -0.5
v -0.4 0.4 0.5
v -0.4 0.4 0.4
v -0.4 0.4 -0.4
v -0.4 0.4 -0.5
v -0.3 0.4 0.4
v -0.3 0.4 -0.5
v -0.3 0.5 0.4
v -0.3 0.5 -0.5
v -0.2 0.5 0.5
v -0.2 0.5 0.4
v -0.2 0.5 0.3
v -0.2 0.5 -0.4
v -0.2 0.6 0.3
v -0.2 0.6 -0.4
v -0.2 0.7 0.5
v -0.2 0.7 0.3
v -0.1 0.4 0.5
v -0.1 0.4 0.4
v -0.1 0.5 0.5
v -0.1 0.5 0.4
v -0.1 0.6 0.3
v -0.1 0.6 0.2
v -0.1 0.6 -0.2
v -0.1 0.7 0.5
v -0.1 0.7 0.3
v -0.1 0.7 0.2
v -0.1 0.7 0
v -0.1 0.7 -0.1
v -0.1 0.7 -0.2
v -0.1 0.8 0.5
v -0.1 0.8 0.3
v -0.1 0.8 0
v -0.1 0.8 -0.1
v 0.1 0.5 0.5
v 0.1 0.5 0.4
v 0.1 0.7 0.5
v 0.1 0.7 0.4
v -0.1 0.5 0.5
v -0.1 0.5 0.4
v -0.1 0.7 0.5
v -0.1 0.7 0.4
v 0 0.7 0
v 0 0.7 -0.1
v 0 0.8 0
v 0 0.8 -0.1
v 0.1 0.4 0.5
v 0.1 0.4 0.4
v 0.1 0.5 0.5
v 0.1 0.5 0.4
v 0.1 0.6 0.3
v 0.1 0.6 0.2
v 0.1 0.6 -0.2
v 0.1 0.7 0.5
v 0.1 0.7 0.3
v 0.1 0.7 0.2
v 0.1 0.7 -0.2
v 0.1 0.8 0.5
v 0.1 0.8 0.3
v 0.2 0.5 0.5
v 0.2 0.5 0.4
v 0.2 0.5 0.3
v 0.2 0.5 -0.4
v 0.2 0.6 0.3
v 0.2 0.6 -0.4
v 0.2 0.7 0.5
v 0.2 0.7 0.3
v 0.3 0.4 0.4
v 0.3 0.4 -0.5
v 0.3 0.5 0.4
v 0.3 0.5 -0.5
v 0.4 0 0.5
v 0.4 0 0.4
v 0.4 0 -0.4
v 0.4 0 -0.5
v 0.4 0.1 0.5
v 0.4 0.1 0.4
v 0.4 0.1 -0.4
v 0.4 0.1 -0.5
v 0.4 0.3 0.5
v 0.4 0.3 0.4
v 0.4 0.3 -0.4
v 0.4 0.3 -0.5
v 0.4 0.4 0.5
v 0.4 0.4 0.4
v 0.4 0.4 -0.4
v 0.4 0.4 -0.5
v 0.5 0 0.4
v 0.5 0 -0.4
v 0.5 0.1 0.5
v 0.5 0.1 0.4
v 0.5 0.1 -0.4
v 0.5 0.1 -0.5
v 0.5 0.3 0.5
v 0.5 0.3 0.4
v 0.5 0.3 -0.4
v 0.5 0.3 -0.5
v 0.5 0.4 0.4
v 0.5 0.4 -0.4
v -0.5 0.1 0.5
v -0.5 0.3 0.5
v -0.4 0 0.5
v -0.4 0.1 0.5
v -0.4 0.3 0.5
v -0.4 0.4 0.5
v -0.3 0.1 0.5
v -0.3 0.3 0.5
v -0.2 0.5 0.5
v -0.2 0.7 0.5
v -0.1 0.4 0.5
v -0.1 0.5 0.5
v -0.1 0.7 0.5
v -0.1 0.8 0.5
v 0.1 0.4 0.5
v 0.1 0.5 0.5
v 0.1 0.7 0.5
v 0.1 0.8 0.5
v 0.2 0.5 0.5
v 0.2 0.7 0.5
v 0.3 0.1 0.5
v 0.3 0.3 0.5
v 0.4 0 0.5
v 0.4 0.1 0.5
v 0.4 0.3 0.5
v 0.4 0.4 0.5
v 0.5 0.1 0.5
v 0.5 0.3 0.5
v -0.5 0 0.4
v -0.5 0.1 0.4
v -0.5 0.3 0.4
v -0.5 0.4 0.4
v -0.4 0 0.4
v -0.4 0.1 0.4
v -0.4 0.3 0.4
v -0.4 0.4 0.4
v -0.3 0.4 0.4
v -0.3 0.5 0.4
v -0.2 0.5 0.4
v -0.1 0.4 0.4
v -0.1 0.5 0.4
v -0.1 0.7 0.4
v 0.1 0.4 0.4
v 0.1 0.5 0.4
v 0.1 0.7 0.4
v 0.2 0.5 0.4
v 0.3 0.4 0.4
v 0.3 0.5 0.4
v 0.4 0 0.4
v 0.4 0.1 0.4
v 0.4 0.3 0.4
v 0.4 0.4 0.4
v 0.5 0 0.4
v 0.5 0.1 0.4
v 0.5 0.3 0.4
v 0.5 0.4 0.4
v -0.1 0.7 0
v -0.1 0.8 0
v 0 0.7 0
v 0 0.8 0
v -0.5 0.1 -0.4
v -0.5 0.3 -0.4
v -0.4 0.1 -0.4
v -0.4 0.3 -0.4
v 0.4 0.1 -0.4
v 0.4 0.3 -0.4
v 0.5 0.1 -0.4
v 0.5 0.3 -0.4
v -0.5 0.1 0.4
v -0.5 0.3 0.4
v -0.4 0.1 0.4
v -0.4 0.3 0.4
v 0.4 0.1 0.4
v 0.4 0.3 0.4
v 0.5 0.1 0.4
v 0.5 0.3 0.4
v -0.2 0.6 0.3
v -0.2 0.7 0.3
v -0.1 0.6 0.3
v -0.1 0.7 0.3
v -0.1 0.8 0.3
v 0.1 0.6 0.3
v 0.1 0.7 0.3
v 0.1 0.8 0.3
v 0.2 0.6 0.3
v 0.2 0.7 0.3
v -0.1 0.7 -0.1
v -0.1 0.8 -0.1
v 0 0.7 -0.1
v 0 0.8 -0.1
v -0.1 0.6 -0.2
v -0.1 0.7 -0.2
v 0.1 0.6 -0.2
v 0.1 0.7 -0.2
v -0.5 0 -0.4
v -0.5 0.1 -0.4
v -0.5 0.3 -0.4
v -0.5 0.4 -0.4
v -0.4 0 -0.4
v -0.4 0.1 -0.4
v -0.4 0.3 -0.4
v -0.4 0.4 -0.4
v -0.2 0.5 -0.4
v -0.2 0.6 -0.4
v 0.2 0.5 -0.4
v 0.2 0.6 -0.4
v 0.4 0 -0.4
v 0.4 0.1 -0.4
v 0.4 0.3 -0.4
v 0.4 0.4 -0.4
v 0.5 0 -0.4
v 0.5 0.1 -0.4
v 0.5 0.3 -0.4
v 0.5 0.4 -0.4
v -0.5 0.1 -0.5
v -0.5 0.3 -0.5
v -0.4 0 -0.5
v -0.4 0.1 -0.5
v -0.4 0.3 -0.5
v -0.4 0.4 -0.5
v -0.3 0.4 -0.5
v -0.3 0.5 -0.5
v 0.3 0.4 -0.5
v 0.3 0.5 -0.5
v 0.4 0 -0.5
v 0.4 0.1 -0.5
v 0.4 0.3 -0.5
v 0.4 0.4 -0.5
v 0.5 0.1 -0.5
v 0.5 0.3 -0.5
v -0.4 0 0.5
v 0.4 0 0.5
v -0.5 0 0.4
v -0.4 0 0.4
v 0.4 0 0.4
v 0.5 0 0.4
v -0.5 0 -0.4
v -0.4 0 -0.4
v 0.4 0 -0.4
v 0.5 0 -0.4
v -0.4 0 -0.5
v 0.4 0 -0.5
v -0.5 0.1 0.5
v -0.4 0.1 0.5
v 0.4 0.1 0.5
v 0.5 0.1 0.5
v -0.5 0.1 0.4
v -0.4 0.1 0.4
v 0.4 0.1 0.4
v 0.5 0.1 0.4
v -0.5 0.1 -0.4
v -0.4 0.1 -0.4
v 0.4 0.1 -0.4
v 0.5 0.1 -0.4
v -0.5 0.1 -0.5
v -0.4 0.1 -0.5
v 0.4 0.1 -0.5
v 0.5 0.1 -0.5
v -0.5 0.3 0.4
v -0.4 0.3 0.4
v 0.4 0.3 0.4
v 0.5 0.3 0.4
v -0.5 0.3 -0.4
v -0.4 0.3 -0.4
v 0.4 0.3 -0.4
v 0.5 0.3 -0.4
v -0.2 0.5 0.5
v -0.1 0.5 0.5
v 0.1 0.5 0.5
v 0.2 0.5 0.5
v -0.2 0.5 0.4
v -0.1 0.5 0.4
v 0.1 0.5 0.4
v 0.2 0.5 0.4
v -0.1 0.7 0.5
v 0.1 0.7 0.5
v -0.1 0.7 0.4
v 0.1 0.7 0.4
v -0.5 0.1 0.4
v -0.4 0.1 0.4
v 0.4 0.1 0.4
v 0.5 0.1 0.4
v -0.5 0.1 -0.4
v -0.4 0.1 -0.4
v 0.4 0.1 -0.4
v 0.5 0.1 -0.4
v -0.5 0.3 0.5
v -0.4 0.3 0.5
v 0.4 0.3 0.5
v 0.5 0.3 0.5
v -0.5 0.3 0.4
v -0.4 0.3 0.4
v 0.4 0.3 0.4
v 0.5 0.3 0.4
v -0.5 0.3 -0.4
v -0.4 0.3 -0.4
v 0.4 0.3 -0.4
v 0.5 0.3 -0.4
v -0.5 0.3 -0.5
v -0.4 0.3 -0.5
v 0.4 0.3 -0.5
v 0.5 0.3 -0.5
v -0.4 0.4 0.5
v -0.1 0.4 0.5
v 0.1 0.4 0.5
v 0.4 0.4 0.5
v -0.5 0.4 0.4
v -0.4 0.4 0.4
v -0.3 0.4 0.4
v -0.1 0.4 0.4
v 0.1 0.4 0.4
v 0.3 0.4 0.4
v 0.4 0.4 0.4
v 0.5 0.4 0.4
v -0.5 0.4 -0.4
v -0.4 0.4 -0.4
v 0.4 0.4 -0.4
v 0.5 0.4 -0.4
v -0.4 0.4 -0.5
v -0.3 0.4 -0.5
v 0.3 0.4 -0.5
v 0.4 0.4 -0.5
v -0.1 0.5 0.5
v 0.1 0.5 0.5
v -0.3 0.5 0.4
v -0.2 0.5 0.4
v -0.1 0.5 0.4
v 0.1 0.5 0.4
v 0.2 0.5 0.4
v 0.3 0.5 0.4
v -0.2 0.5 0.3
v 0.2 0.5 0.3
v -0.2 0.5 -0.4
v 0.2 0.5 -0.4
v -0.3 0.5 -0.5
v 0.3 0.5 -0.5
v -0.2 0.6 0.3
v -0.1 0.6 0.3
v 0.1 0.6 0.3
v 0.2 0.6 0.3
v -0.1 0.6 0.2
v 0.1 0.6 0.2
v -0.1 0.6 -0.2
v 0.1 0.6 -0.2
v -0.2 0.6 -0.4
v 0.2 0.6 -0.4
v -0.2 0.7 0.5
v -0.1 0.7 0.5
v 0.1 0.7 0.5
v 0.2 0.7 0.5
v -0.2 0.7 0.3
v -0.1 0.7 0.3
v 0.1 0.7 0.3
v 0.2 0.7 0.3
v -0.1 0.7 0.2
v 0.1 0.7 0.2
v -0.1 0.7 0
v 0 0.7 0
v -0.1 0.7 -0.1
v 0 0.7 -0.1
v -0.1 0.7 -0.2
v 0.1 0.7 -0.2
v -0.1 0.8 0.5
v 0.1 0.8 0.5
v -0.1 0.8 0.3
v 0.1 0.8 0.3
v -0.1 0.8 0
v 0 0.8 0
v -0.1 0.8 -0.1
v 0 0.8 -0.1

# faces
f 4/5/1 2/5/1 1/5/1
f 5/5/1 2/5/1 4/5/1
f 7/5/1 4/5/1 3/5/1
f 8/5/1 4/5/1 7/5/1
f 9/5/1 6/5/1 5/5/1
f 10/5/1 6/5/1 9/5/1
f 11/5/1 9/5/1 8/5/1
f 12/5/1 9/5/1 11/5/1
f 17/1/1 14/1/1 13/1/1
f 18/1/1 14/1/1 17/1/1
f 19/1/1 16/1/1 15/1/1
f 20/1/1 16/1/1 19/1/1
f 22/1/1 19/1/1 18/1/1
f 23/1/1 19/1/1 22/1/1
f 25/1/1 22/1/1 21/1/1
f 26/1/1 22/1/1 25/1/1
f 27/1/1 24/1/1 23/1/1
f 28/1/1 24/1/1 27/1/1
f 31/2/1 30/2/1 29/2/1
f 32/2/1 30/2/1 31/2/1
f 37/4/1 34/4/1 33/4/1
f 37/2/1 36/2/1 35/2/1
f 37/4/1 35/4/1 34/4/1
f 38/2/1 36/2/1 37/2/1
f 39/4/1 37/4/1 33/4/1
f 40/4/1 37/4/1 39/4/1
f 43/4/1 42/4/1 41/4/1
f 44/4/1 42/4/1 43/4/1
f 49/4/1 46/4/1 45/4/1
f 50/2/1 47/2/1 46/2/1
f 50/4/1 46/4/1 49/4/1
f 51/2/1 47/2/1 50/2/1
f 52/2/1 47/2/1 51/2/1
f 53/2/1 47/2/1 52/2/1
f 54/4/1 49/4/1 48/4/1
f 55/4/1 49/4/1 54/4/1
f 56/3/1 52/3/1 51/3/1
f 57/3/1 52/3/1 56/3/1
f 60/4/1 59/4/1 58/4/1
f 61/4/1 59/4/1 60/4/1
f 62/4/2 63/4/2 64/4/2
f 64/4/2 63/4/2 65/4/2
f 66/3/2 67/3/2 68/3/2
f 68/3/2 67/3/2 69/3/2
f 70/4/2 71/4/2 72/4/2
f 72/4/2 71/4/2 73/4/2
f 74/4/2 75/4/2 78/4/2
f 75/2/2 76/2/2 79/2/2
f 78/4/2 75/4/2 79/4/2
f 79/2/2 76/2/2 80/2/2
f 77/4/2 78/4/2 81/4/2
f 81/4/2 78/4/2 82/4/2
f 83/4/2 84/4/2 87/4/2
f 85/2/2 86/2/2 87/2/2
f 84/4/2 85/4/2 87/4/2
f 87/2/2 86/2/2 88/2/2
f 83/4/2 87/4/2 89/4/2
f 89/4/2 87/4/2 90/4/2
f 91/2/2 92/2/2 93/2/2
f 93/2/2 92/2/2 94/2/2
f 95/1/2 96/1/2 99/1/2
f 99/1/2 96/1/2 100/1/2
f 97/1/2 98/1/2 101/1/2
f 101/1/2 98/1/2 102/1/2
f 100/1/2 101/1/2 104/1/2
f 104/1/2 101/1/2 105/1/2
f 103/1/2 104/1/2 107/1/2
f 107/1/2 104/1/2 108/1/2
f 105/1/2 106/1/2 109/1/2
f 109/1/2 106/1/2 110/1/2
f 111/5/2 112/5/2 114/5/2
f 114/5/2 112/5/2 115/5/2
f 113/5/2 114/5/2 117/5/2
f 117/5/2 114/5/2 118/5/2
f 115/5/2 116/5/2 119/5/2
f 119/5/2 116/5/2 120/5/2
f 118/5/2 119/5/2 121/5/2
f 121/5/2 119/5/2 122/5/2
f 126/5/3 124/5/3 123/5/3
f 127/5/3 124/5/3 126/5/3
f 129/1/3 126/1/3 125/1/3
f 129/1/3 128/1/3 127/1/3
f 129/1/3 127/1/3 126/1/3
f 130/1/3 128/1/3 129/1/3
f 133/1/3 128/1/3 130/1/3
f 134/4/3 132/4/3 131/4/3
f 135/4/3 132/4/3 134/4/3
f 137/1/3 133/1/3 130/1/3
f 137/4/3 134/4/3 133/4/3
f 138/4/3 134/4/3 137/4/3
f 139/4/3 136/4/3 135/4/3
f 140/4/3 136/4/3 139/4/3
f 141/4/3 139/4/3 138/4/3
f 142/4/3 139/4/3 141/4/3
f 143/1/3 129/1/3 125/1/3
f 143/5/3 130/5/3 129/5/3
f 144/1/3 137/1/3 130/1/3
f 144/5/3 130/5/3 143/5/3
f 145/1/3 143/1/3 125/1/3
f 145/1/3 144/1/3 143/1/3
f 146/1/3 144/1/3 145/1/3
f 147/1/3 137/1/3 144/1/3
f 147/1/3 144/1/3 146/1/3
f 148/1/3 137/1/3 147/1/3
f 149/5/3 147/5/3 146/5/3
f 150/5/3 147/5/3 149/5/3
f 155/5/3 152/5/3 151/5/3
f 156/5/3 152/5/3 155/5/3
f 157/5/3 154/5/3 153/5/3
f 158/5/3 154/5/3 157/5/3
f 161/2/3 160/2/3 159/2/3
f 162/2/3 161/2/3 159/2/3
f 163/2/3 161/2/3 162/2/3
f 166/4/3 164/4/3 163/4/3
f 167/4/3 164/4/3 166/4/3
f 168/2/3 166/2/3 165/2/3
f 169/2/3 168/2/3 165/2/3
f 170/2/3 168/2/3 169/2/3
f 175/5/3 172/5/3 171/5/3
f 176/5/3 172/5/3 175/5/3
f 177/5/3 174/5/3 173/5/3
f 178/5/3 174/5/3 177/5/3
f 181/3/3 180/3/3 179/3/3
f 182/3/3 180/3/3 181/3/3
f 185/5/3 184/5/3 183/5/3
f 186/5/3 184/5/3 185/5/3
f 189/5/3 188/5/3 187/5/3
f 190/5/3 188/5/3 189/5/3
f 191/5/4 192/5/4 193/5/4
f 193/5/4 192/5/4 194/5/4
f 195/5/4 196/5/4 197/5/4
f 197/5/4 196/5/4 198/5/4
f 199/4/4 200/4/4 201/4/4
f 201/4/4 200/4/4 202/4/4
f 202/4/4 203/4/4 205/4/4
f 205/4/4 203/4/4 206/4/4
f 204/4/4 205/4/4 207/4/4
f 207/4/4 205/4/4 208/4/4
f 209/3/4 210/3/4 211/3/4
f 211/3/4 210/3/4 212/3/4
f 213/2/4 214/2/4 215/2/4
f 215/2/4 214/2/4 216/2/4
f 217/5/4 218/5/4 221/5/4
f 221/5/4 218/5/4 222/5/4
f 219/5/4 220/5/4 223/5/4
f 223/5/4 220/5/4 224/5/4
f 225/2/4 226/2/4 227/2/4
f 227/2/4 226/2/4 228/2/4
f 229/5/4 230/5/4 233/5/4
f 233/5/4 230/5/4 234/5/4
f 231/5/4 232/5/4 235/5/4
f 235/5/4 232/5/4 236/5/4
f 237/5/4 238/5/4 240/5/4
f 240/5/4 238/5/4 241/5/4
f 239/1/4 240/1/4 243/1/4
f 241/1/4 242/1/4 243/1/4
f 240/1/4 241/1/4 243/1/4
f 239/1/4 243/1/4 245/1/4
f 243/2/4 244/2/4 245/2/4
f 245/2/4 244/2/4 246/2/4
f 239/1/4 245/1/4 247/1/4
f 247/1/4 245/1/4 248/1/4
f 248/1/4 245/1/4 249/1/4
f 249/1/4 245/1/4 250/1/4
f 248/5/4 249/5/4 251/5/4
f 251/5/4 249/5/4 252/5/4
f 256/1/5 254/1/5 253/1/5
f 257/1/5 254/1/5 256/1/5
f 259/5/5 256/5/5 255/5/5
f 260/1/5 257/1/5 256/1/5
f 260/5/5 256/5/5 259/5/5
f 261/5/5 258/5/5 257/5/5
f 261/1/5 257/1/5 260/1/5
f 262/5/5 258/5/5 261/5/5
f 263/1/5 261/1/5 260/1/5
f 264/1/5 261/1/5 263/1/5
f 269/5/5 266/5/5 265/5/5
f 270/5/5 266/5/5 269/5/5
f 271/5/5 268/5/5 267/5/5
f 272/5/5 268/5/5 271/5/5
f 277/5/5 274/5/5 273/5/5
f 278/5/5 274/5/5 277/5/5
f 279/5/5 276/5/5 275/5/5
f 280/5/5 276/5/5 279/5/5
f 285/5/5 282/5/5 281/5/5
f 286/5/5 282/5/5 285/5/5
f 287/5/5 284/5/5 283/5/5
f 288/5/5 284/5/5 287/5/5
f 293/4/5 290/4/5 289/4/5
f 294/4/5 290/4/5 293/4/5
f 295/4/5 292/4/5 291/4/5
f 296/4/5 292/4/5 295/4/5
f 299/4/5 298/4/5 297/4/5
f 300/4/5 298/4/5 299/4/5
f 301/5/6 302/5/6 305/5/6
f 305/5/6 302/5/6 306/5/6
f 303/5/6 304/5/6 307/5/6
f 307/5/6 304/5/6 308/5/6
f 309/5/6 310/5/6 313/5/6
f 313/5/6 310/5/6 314/5/6
f 311/5/6 312/5/6 315/5/6
f 315/5/6 312/5/6 316/5/6
f 317/5/6 318/5/6 321/5/6
f 321/5/6 318/5/6 322/5/6
f 319/5/6 320/5/6 323/5/6
f 323/5/6 320/5/6 324/5/6
f 325/1/6 326/1/6 330/1/6
f 330/1/6 326/1/6 331/1/6
f 331/1/6 326/1/6 332/1/6
f 327/1/6 328/1/6 333/1/6
f 333/1/6 328/1/6 334/1/6
f 334/1/6 328/1/6 335/1/6
f 329/5/6 330/5/6 337/5/6
f 330/1/6 331/1/6 338/1/6
f 337/5/6 330/5/6 338/5/6
f 335/5/6 336/5/6 339/5/6
f 334/1/6 335/1/6 339/1/6
f 339/5/6 336/5/6 340/5/6
f 338/1/6 331/1/6 341/1/6
f 341/1/6 331/1/6 342/1/6
f 334/1/6 339/1/6 343/1/6
f 343/1/6 339/1/6 344/1/6
f 345/4/6 346/4/6 349/4/6
f 349/4/6 346/4/6 350/4/6
f 347/2/6 348/2/6 353/2/6
f 351/2/6 352/2/6 354/2/6
f 347/2/6 353/2/6 355/2/6
f 354/2/6 352/2/6 356/2/6
f 347/2/6 355/2/6 357/2/6
f 355/2/6 356/2/6 357/2/6
f 356/2/6 352/2/6 358/2/6
f 357/2/6 356/2/6 358/2/6
f 359/2/6 360/2/6 363/2/6
f 361/2/6 362/2/6 364/2/6
f 359/2/6 363/2/6 365/2/6
f 364/2/6 362/2/6 366/2/6
f 359/2/6 365/2/6 367/2/6
f 365/2/6 366/2/6 367/2/6
f 366/2/6 362/2/6 368/2/6
f 367/2/6 366/2/6 368/2/6
f 369/4/6 370/4/6 373/4/6
f 373/4/6 370/4/6 374/4/6
f 371/4/6 372/4/6 375/4/6
f 375/4/6 372/4/6 376/4/6
f 374/4/6 375/4/6 377/4/6
f 377/4/6 375/4/6 378/4/6
f 377/2/6 378/2/6 379/2/6
f 379/2/6 378/2/6 380/2/6
f 380/2/6 378/2/6 382/2/6
f 381/2/6 382/2/6 383/2/6
f 382/2/6 378/2/6 384/2/6
f 383/2/6 382/2/6 384/2/6
f 385/4/6 386/4/6 387/4/6
f 387/4/6 386/4/6 388/4/6
f 389/3/6 390/3/6 391/3/6
f 391/3/6 390/3/6 392/3/6
